<svg width="25" height="24" viewBox="0 0 25 24" fill="none" xmlns="http://www.w3.org/2000/svg">
<path d="M22.2978 9.3913C22.5065 10.2261 22.663 11.0609 22.663 12C22.663 17.4783 18.2283 21.913 12.75 21.913C7.27174 21.913 2.83696 17.4783 2.83696 12C2.83696 6.52174 7.27174 2.08696 12.75 2.08696C14.9935 2.08696 17.0804 2.86957 18.75 4.12174L20.263 2.6087C18.2283 0.93913 15.6196 0 12.8022 0C6.12391 0 0.75 5.37391 0.75 12C0.75 18.6261 6.12391 24 12.75 24C19.3761 24 24.75 18.6261 24.75 12C24.75 10.487 24.4891 9.07826 23.9674 7.77391L22.2978 9.3913Z" fill="#F6F6F6"/>
<path d="M12.489 17.0085L7.32381 11.8433C6.69773 11.2172 6.69773 10.2259 7.32381 9.65198L8.41947 8.55633L12.4369 12.5737L21.6195 3.39111L22.7151 4.48677C23.3412 5.11285 23.3412 6.10416 22.7151 6.67807L12.489 17.0085Z" fill="#FFC230"/>
<path d="M12.4891 12.5738C11.9152 13.1477 10.8196 14.2433 10.8196 14.2433L11.4457 11.5303L12.4891 12.5738Z" fill="#FFC230"/>
</svg>
