<svg width="24" height="24" viewBox="0 0 24 24" fill="none" xmlns="http://www.w3.org/2000/svg">
<path d="M21.5478 9.3913C21.7565 10.2261 21.913 11.0609 21.913 12C21.913 17.4783 17.4783 21.913 12 21.913C6.52174 21.913 2.08696 17.4783 2.08696 12C2.08696 6.52174 6.52174 2.08696 12 2.08696C14.2435 2.08696 16.3304 2.86957 18 4.12174L19.513 2.6087C17.4783 0.93913 14.8696 0 12.0522 0C5.37391 0 0 5.37391 0 12C0 18.6261 5.37391 24 12 24C18.6261 24 24 18.6261 24 12C24 10.487 23.7391 9.07826 23.2174 7.77391L21.5478 9.3913Z" fill="#BEBEBE"/>
<path d="M11.739 17.0085L6.57381 11.8433C5.94773 11.2172 5.94773 10.2259 6.57381 9.65198L7.66947 8.55633L11.6869 12.5737L20.8695 3.39111L21.9651 4.48677C22.5912 5.11285 22.5912 6.10416 21.9651 6.67807L11.739 17.0085Z" fill="#FFC230"/>
<path d="M11.7391 12.5738C11.1652 13.1477 10.0696 14.2433 10.0696 14.2433L10.6957 11.5303L11.7391 12.5738Z" fill="#FFC230"/>
</svg>
